<?xml version="1.0" encoding="UTF-8" standalone="no"?>
<!-- Created with Inkscape (http://www.inkscape.org/) -->

<svg
   version="1.1"
   id="svg1"
   width="949.01428"
   height="385.7695"
   viewBox="0 0 949.01428 385.7695"
   sodipodi:docname="mytholore_logo.svg"
   inkscape:version="1.3.2 (091e20e, 2023-11-25, custom)"
   xmlns:inkscape="http://www.inkscape.org/namespaces/inkscape"
   xmlns:sodipodi="http://sodipodi.sourceforge.net/DTD/sodipodi-0.dtd"
   xmlns:xlink="http://www.w3.org/1999/xlink"
   xmlns="http://www.w3.org/2000/svg"
   xmlns:svg="http://www.w3.org/2000/svg">
  <defs
     id="defs1">
    <linearGradient
       id="swatch2"
       inkscape:swatch="solid">
      <stop
         style="stop-color:#000000;stop-opacity:1;"
         offset="0"
         id="stop2" />
    </linearGradient>
    <linearGradient
       inkscape:collect="always"
       xlink:href="#swatch2"
       id="linearGradient2"
       x1="33.531548"
       y1="501.18826"
       x2="960.33832"
       y2="501.18826"
       gradientUnits="userSpaceOnUse"
       gradientTransform="matrix(1.0242062,0,0,0.61928786,-0.92559569,-101.58291)" />
  </defs>
  <sodipodi:namedview
     id="namedview1"
     pagecolor="#ffffff"
     bordercolor="#000000"
     borderopacity="0.25"
     inkscape:showpageshadow="2"
     inkscape:pageopacity="0.0"
     inkscape:pagecheckerboard="0"
     inkscape:deskcolor="#d1d1d1"
     inkscape:zoom="0.8105683"
     inkscape:cx="468.80689"
     inkscape:cy="485.46187"
     inkscape:window-width="1920"
     inkscape:window-height="1009"
     inkscape:window-x="-8"
     inkscape:window-y="-8"
     inkscape:window-maximized="1"
     inkscape:current-layer="g1" />
  <g
     inkscape:groupmode="layer"
     inkscape:label="Image"
     id="g1"
     transform="translate(-33.531555,-15.907502)">
    <path
       style="display:inline;fill:#fa4a1d;fill-opacity:1;stroke:url(#linearGradient2);stroke-width:0.796413;stroke-opacity:1"
       d="m 509.8623,395.5504 c -4.21447,-13.33534 -5.68491,-24.01274 -7.95285,-57.74859 -1.24559,-18.52833 -2.56882,-85.15208 -1.69124,-85.15208 0.33952,0 3.27152,0.41802 6.51559,0.92893 3.24406,0.51092 8.87216,0.92894 12.50689,0.92894 h 6.6086 l -0.66814,27.71313 c -1.04895,43.50795 -3.50974,81.21632 -6.29002,96.38618 -1.55055,8.46005 -5.70119,22.6719 -6.62148,22.6719 -0.32832,0 -1.41164,-2.57778 -2.40735,-5.72841 z M 33.929789,250.63705 c 0.01781,-0.42576 2.03759,-1.50934 4.488409,-2.40795 5.326785,-1.95312 10.159195,-7.37457 11.791727,-13.22907 1.012963,-3.63262 6.377907,-34.96104 10.262778,-59.92914 2.552166,-16.40278 1.585503,-19.68568 -6.709242,-22.78539 -1.91331,-0.715 -3.478746,-1.52027 -3.478746,-1.78951 0,-0.3458 36.661584,-0.37113 49.899185,-0.0345 0.12385,0.003 -0.958364,1.05078 -2.404928,2.32805 -3.768341,3.32737 -3.109213,5.57507 7.581938,25.85528 5.02763,9.53702 9.75841,18.80312 10.51281,20.59132 0.75441,1.78819 1.63152,3.25126 1.94912,3.25126 0.66875,0 8.01906,-14.09123 16.63633,-31.89333 5.89931,-12.18713 7.22632,-16.69003 5.67587,-19.2595 -0.77861,-1.29034 -0.60833,-1.30279 22.53622,-1.64684 12.82643,-0.19067 23.52705,-0.22402 23.77915,-0.0741 0.2521,0.1499 -1.87267,1.50552 -4.72171,3.01247 -7.90782,4.18273 -8.09362,4.69986 -6.6551,18.52216 3.15936,30.35706 8.78077,64.71158 11.44084,69.91903 1.97991,3.87592 5.50547,6.91936 9.60741,8.29356 1.06686,0.35742 1.61454,0.9633 1.21981,1.34947 -0.82856,0.81064 -52.82997,1.02664 -52.82997,0.21946 0,-0.26476 1.34184,-1.19332 2.98183,-2.06346 6.77783,-3.59612 7.70215,-12.17405 4.21568,-39.1229 -1.11117,-8.58901 -2.32608,-17.98515 -2.69978,-20.88033 l -0.67944,-5.26394 -8.07535,14.55327 c -7.50872,13.53207 -13.88655,25.64454 -22.90763,43.50496 -2.02143,4.00215 -3.99538,7.27627 -4.38656,7.27583 -0.39119,-4.6e-4 -8.0217,-13.86477 -16.956697,-30.80958 -8.934998,-16.94482 -16.503234,-31.22677 -16.818303,-31.73769 -0.592054,-0.96005 -3.032098,13.62608 -5.801468,34.68012 -2.657484,20.20343 -2.077328,24.10871 4.10529,27.6344 1.879203,1.07163 3.133076,2.11994 2.786383,2.32957 -0.346694,0.20963 -10.923624,0.38114 -23.50429,0.38114 -17.633613,0 -22.866523,-0.17735 -22.841566,-0.77411 z m 844.937751,0.20294 c 0,-0.32069 1.39312,-1.18287 3.09581,-1.91597 1.7027,-0.73309 4.12239,-2.49382 5.37708,-3.91271 l 2.28128,-2.57983 0.29729,-41.02387 c 0.20058,-27.68131 -0.0583,-41.82227 -0.79593,-43.47868 -0.60126,-1.35014 -2.69382,-3.48099 -4.65016,-4.73522 -1.95632,-1.25424 -3.55696,-2.38363 -3.55696,-2.50976 0,-0.12613 20.85541,-0.15682 46.34534,-0.0682 l 46.34533,0.16114 1.18339,12.38576 c 1.52405,15.95118 1.5673,17.6497 0.44946,17.6497 -0.51022,0 -2.31894,-1.79768 -4.01939,-3.99484 -6.79764,-8.7833 -22.59092,-14.58379 -39.70804,-14.58379 -10.45704,0 -9.62783,-1.42627 -9.62783,16.56018 v 15.80837 l 9.986,-0.30395 c 5.60494,-0.17061 11.55871,-0.71925 13.57074,-1.25056 3.83555,-1.01281 9.34483,-3.97037 13.00173,-6.97974 l 2.24757,-1.84959 0.0569,15.94666 c 0.0314,8.77066 -0.28876,15.93154 -0.71125,15.91304 -0.42248,-0.0186 -2.15082,-1.33462 -3.84076,-2.92473 -1.68995,-1.59011 -5.0622,-3.73096 -7.49392,-4.75744 -4.14181,-1.74835 -5.12916,-1.88098 -15.61914,-2.09808 l -11.1979,-0.23175 v 15.78452 c 0,12.03718 0.31001,15.94009 1.30587,16.43982 2.42015,1.21449 11.31607,1.44653 19.88235,0.51862 9.96812,-1.07975 18.39396,-3.61746 25.30393,-7.62106 4.79116,-2.77597 11.8876,-8.80064 11.8876,-10.09222 0,-0.35697 0.52702,-0.64904 1.17116,-0.64904 1.28972,0 0.9424,3.56335 -2.02213,20.74614 l -1.70955,9.90861 -49.41795,0.16077 c -30.40407,0.0989 -49.41795,-0.0636 -49.41795,-0.4223 z m -373.24655,-4.167 c -16.2523,-3.0162 -31.39617,-13.95999 -37.62548,-27.1902 -3.26703,-6.93872 -3.25472,-20.56324 0.0252,-27.83291 5.5376,-12.27391 17.39446,-22.5082 30.64695,-26.45306 6.57581,-1.95742 7.29833,-2.03418 19.14571,-2.03418 11.65034,0 12.6698,0.10309 18.96934,1.91817 16.96486,4.88806 26.99751,13.98723 32.24143,29.24154 3.57205,10.39087 0.88545,26.0585 -6.01744,35.09223 -3.8354,5.01933 -13.74559,11.8626 -20.79804,14.36165 -10.56529,3.7438 -25.60666,4.93467 -36.58762,2.89676 z m 21.11638,-10.06707 c 13.70866,-5.25671 20.37981,-20.34436 17.26903,-39.05612 -2.0925,-12.58663 -8.80887,-21.3997 -18.69519,-24.53139 -3.61708,-1.14579 -11.41031,-1.11895 -15.15582,0.0522 -12.17492,3.80682 -19.43741,21.53429 -16.39447,40.01823 1.5481,9.40374 4.79832,15.91785 9.9752,19.99231 7.05082,5.54936 14.6747,6.71767 23.00125,3.52479 z m 170.33357,9.81402 c -16.77385,-3.29168 -30.74302,-13.60663 -36.43252,-26.90211 -2.97087,-6.94242 -2.9473,-19.08361 0.0518,-26.72808 8.33531,-21.24555 34.82608,-33.41962 63.05088,-28.97562 22.92783,3.60999 38.35466,17.70807 40.96296,37.43471 1.42903,10.80774 -3.69043,25.15068 -11.62395,32.56628 -6.98917,6.53287 -18.54751,11.62618 -30.00942,13.22393 -7.22643,1.00735 -19.15964,0.72319 -25.99982,-0.61911 z m 23.69056,-10.02651 c 12.98882,-5.25556 19.56992,-20.20806 16.84398,-38.27013 -2.70831,-17.94532 -14.23265,-27.90711 -29.32805,-25.35158 -13.51505,2.28799 -20.91678,13.68761 -20.90269,32.19285 0.0112,14.61345 2.82249,22.45513 10.12643,28.24529 7.00605,5.55402 14.77424,6.61722 23.26033,3.18357 z m 123.64482,9.18656 c -8.7273,-2.45703 -15.92084,-9.32716 -23.03372,-21.99814 -1.61327,-2.87391 -2.93323,-5.88803 -2.93323,-6.69805 0,-3.16266 -1.59498,-3.86849 -8.74178,-3.86849 h -6.6213 l 0.006,11.302 c 0.003,6.35268 0.50234,12.38362 1.13975,13.77192 0.63386,1.38053 2.69283,3.35884 4.66826,4.48534 1.94382,1.10849 3.24731,2.29613 2.89664,2.63921 -0.78613,0.76911 -44.44981,0.84237 -46.44456,0.0779 -1.04465,-0.40034 -0.60857,-0.85683 1.81555,-1.90053 4.2583,-1.83341 7.22316,-5.52334 8.43391,-10.49642 1.43634,-5.89973 1.24629,-54.46332 -0.22998,-58.76306 -0.97449,-2.83829 -2.03594,-3.94025 -6.10217,-6.33505 l -4.92247,-2.89909 28.84358,-0.40841 c 23.21047,-0.32866 30.17639,-0.23445 35.66797,0.48232 14.26592,1.86206 25.73968,6.71188 31.0847,13.13913 2.79049,3.35553 3.02082,4.14694 3.03925,10.44284 0.0174,5.96616 -0.27955,7.15826 -2.39165,9.59897 -3.27824,3.78831 -9.89585,7.84309 -15.76808,9.66152 -2.67575,0.82859 -4.86498,1.57997 -4.86498,1.66975 0,0.0898 3.81799,5.31032 8.4844,11.6012 8.8629,11.94825 14.07387,17.20849 21.11781,21.31746 2.30814,1.34642 4.1966,2.62603 4.1966,2.8436 0,0.87405 -8.38041,1.82986 -15.99403,1.82415 -6.35625,-0.005 -9.19672,-0.32189 -13.34616,-1.4901 z m -21.50596,-42.99602 c 9.38742,-3.02613 12.15151,-6.29842 12.05036,-14.26585 -0.0662,-5.21072 -3.56603,-9.73021 -9.4417,-12.19225 -3.63823,-1.52451 -5.34836,-1.7833 -13.3038,-2.01328 l -9.12893,-0.26391 v 15.20716 15.20718 l 2.81656,0.24066 c 5.2668,0.45003 12.0215,-0.31241 17.00751,-1.91971 z M 209.28737,242.5863 c 6.00685,-3.41324 6.91876,-5.98898 6.91876,-19.54264 v -10.34718 l -9.30765,-16.40653 c -10.34176,-18.22934 -14.49852,-23.62579 -21.67283,-28.13631 -2.67671,-1.68285 -4.86674,-3.14591 -4.86674,-3.25125 0,-0.10534 9.69255,-0.19153 21.539,-0.19153 h 21.53898 l -2.20289,1.8016 c -3.77812,3.08988 -1.77717,9.13415 7.96118,24.04826 l 3.7369,5.72299 4.41972,-6.8258 c 8.11925,-12.53934 9.33332,-18.41635 4.60352,-22.28455 -1.20586,-0.98619 -2.19245,-1.94369 -2.19245,-2.12778 0,-0.1841 8.29606,-0.33472 18.4357,-0.33472 10.13964,0 18.43572,0.14007 18.43572,0.31126 0,0.17118 -1.77485,1.2808 -3.94413,2.46579 -6.42737,3.51107 -11.20226,9.75322 -24.89084,32.53961 l -6.50014,10.82029 0.083,11.45682 c 0.10777,14.88892 1.67832,18.80855 8.40918,20.98665 5.07088,1.64093 1.8885,1.927 -21.43689,1.927 H 204.6555 Z m 85.78266,2.16752 c 2e-5,-0.25547 1.61425,-1.24326 3.58719,-2.1951 6.55972,-3.16476 7.88871,-5.70723 8.80666,-16.84801 0.44903,-5.44973 0.83991,-19.03536 0.86861,-30.19028 l 0.0522,-20.28168 h -2.37461 c -6.40206,0 -13.36519,1.98129 -18.80644,5.35117 -3.00245,1.85948 -6.38772,4.48163 -7.52287,5.82702 -2.8035,3.32275 -4.18146,3.1206 -3.3774,-0.49547 0.35976,-1.61789 1.61839,-7.12181 2.79698,-12.23094 l 2.14288,-9.28931 3.58473,0.30964 c 1.97159,0.17031 19.8314,0.30964 39.68846,0.30964 19.85706,0 36.12284,0 36.14617,0 0.43391,0 3.76076,22.36182 3.36065,22.58903 -0.31441,0.17854 -1.09371,-0.20781 -1.73178,-0.85855 -3.15261,-3.21521 -9.94556,-7.65509 -14.07274,-9.19795 -2.70679,-1.01187 -6.81323,-1.8824 -9.93366,-2.10587 l -5.31941,-0.38093 V 204.342 c 0,20.64749 0.35499,29.99218 1.20449,31.70658 1.33038,2.68492 8.38228,7.93112 10.66093,7.93112 0.7971,0 1.44927,0.27868 1.44927,0.61929 0,0.39634 -9.21786,0.61929 -25.60516,0.61929 -14.08284,0 -25.60515,-0.20901 -25.60513,-0.46446 z m 69.64599,0.0594 c 0,-0.22278 1.75365,-1.31267 3.89697,-2.42197 2.23095,-1.15465 4.43262,-3.03335 5.14988,-4.39442 3.30154,-6.26502 4.17968,-58.92496 1.0929,-65.53763 -0.64402,-1.37965 -2.73873,-3.37422 -4.74539,-4.51854 -1.97584,-1.12674 -3.41561,-2.15553 -3.19947,-2.28623 0.67589,-0.40867 42.87102,-0.53021 43.5405,-0.12541 0.34927,0.21119 -0.76477,1.17463 -2.47563,2.14097 -4.6066,2.60194 -5.53524,5.41047 -6.10698,18.4694 l -0.51789,11.82959 3.31891,0.40135 c 4.21352,0.50954 19.2223,0.52181 23.37925,0.0191 l 3.16091,-0.38226 -0.52535,-12.15832 c -0.66132,-15.30504 -0.78159,-15.73705 -5.20539,-18.6978 l -3.64603,-2.44023 h 22.34052 22.34054 l -3.15887,2.01268 c -6.30565,4.01767 -6.69876,5.07014 -7.69104,20.59132 -0.98705,15.43975 -0.26583,40.95808 1.33683,47.29846 1.24628,4.93055 3.16515,7.21873 7.08018,8.44287 1.6804,0.52543 3.05528,1.22684 3.05528,1.5587 0,0.37337 -8.58957,0.60339 -22.53254,0.60339 -12.3929,0 -22.53254,-0.22654 -22.53254,-0.50343 0,-0.27688 1.3856,-1.30608 3.07911,-2.28712 1.6935,-0.98104 3.55846,-2.77492 4.14435,-3.98641 0.5859,-1.21149 1.344,-8.26399 1.68468,-15.67223 l 0.61942,-13.4695 h -15.1281 -15.12808 l 0.45668,13.77915 c 0.48746,14.70749 1.36215,17.5275 6.12047,19.73224 4.47121,2.0717 1.50952,2.4073 -21.24409,2.4073 -12.078,0 -21.95999,-0.18227 -21.95999,-0.40506 z m 210.73043,-0.0385 c -3.45941,-0.31688 -3.5996,-0.99977 -0.38691,-1.88486 1.33631,-0.36815 3.52024,-2.01529 4.85319,-3.66031 2.20913,-2.72635 2.47933,-4.05923 3.05431,-15.06706 1.02659,-19.65347 0.39081,-47.57009 -1.15577,-50.74957 -0.83925,-1.72532 -2.99651,-3.7564 -5.7728,-5.43506 -2.43803,-1.47416 -4.43279,-2.8123 -4.43279,-2.97364 0,-0.16134 11.06143,-0.29334 24.58095,-0.29334 13.51953,0 24.58095,0.22627 24.58095,0.50282 0,0.27655 -1.37895,1.11926 -3.06432,1.87269 -1.68537,0.75343 -4.10065,2.54758 -5.3673,3.98701 -2.29627,2.60952 -2.30302,2.70472 -2.31276,32.65261 l -0.0103,30.03546 3.87174,0.19333 c 13.25215,0.66169 28.66033,-6.67464 34.2787,-16.32121 0.98648,-1.69376 2.2545,-3.1479 2.81781,-3.23143 0.65525,-0.0971 1.13701,5.27983 1.33734,14.92627 l 0.31313,15.07813 -10.97057,0.40586 c -11.59506,0.42898 -61.43005,0.40061 -66.2151,-0.0377 z M 499.42566,154.4065 c -1.51811,-7.34686 -4.06844,-8.39334 -23.97952,-9.83945 -15.95808,-1.15902 -24.89531,-2.72372 -32.01454,-5.60502 -7.38197,-2.98763 -11.44236,-5.87409 -16.00173,-11.37531 -3.80522,-4.59131 -3.82199,-4.64563 -3.82182,-12.38576 1.4e-4,-7.07852 0.31025,-8.38384 3.46546,-14.58639 7.87571,-15.482198 8.61484,-17.858826 8.66683,-27.867958 0.0632,-12.156292 -2.79502,-18.497292 -12.04925,-26.731945 -1.47233,-1.310117 -2.18618,-2.4668 -1.59584,-2.585779 2.15831,-0.435006 15.93171,5.172023 22.45249,9.140223 6.50551,3.958881 13.31074,9.625209 18.84083,15.687667 3.03553,3.327761 2.41187,3.616791 -3.0067,1.393399 -7.15405,-2.935505 -7.53845,-2.598153 -6.88027,6.038056 0.43003,5.642394 0.0858,9.728509 -1.34309,15.946662 -1.1012,4.791896 -1.92127,11.928875 -1.92127,16.720775 1e-5,7.91373 0.14968,8.53203 2.80164,11.57324 3.33399,3.82336 7.74699,6.00084 15.5014,7.64879 11.62332,2.47016 25.85344,0.89197 29.08279,-3.22543 1.75578,-2.2386 3.04497,-11.05768 4.30047,-29.418956 1.75884,-25.722232 1.80956,-37.359821 0.16281,-37.359508 -0.77528,1.38e-4 -4.13054,0.836293 -7.45611,1.858122 -3.32559,1.021822 -6.2333,1.857859 -6.46155,1.857859 -0.22827,0 1.36598,-2.299099 3.5428,-5.109125 5.61305,-7.2458 17.84788,-30.51573 19.90206,-37.852538 0.27395,-0.978464 0.67834,-1.888007 0.89864,-2.021209 0.2203,-0.133209 1.90296,3.314812 3.73929,7.662255 4.66157,11.03621 12.40762,25.069482 17.37725,31.481747 2.30813,2.978169 4.06045,5.49718 3.89403,5.597805 -0.16641,0.100618 -3.00087,-0.64001 -6.2988,-1.64585 -3.29793,-1.005846 -6.62262,-1.828811 -7.3882,-1.828811 -1.72974,0 -1.82383,8.824512 -0.35653,33.441549 1.21392,20.36599 2.58711,30.31784 4.58162,33.20416 2.96419,4.28959 15.39035,5.78878 28.12185,3.39286 11.03175,-2.07606 17.07197,-6.1011 19.41813,-12.93974 1.62312,-4.73113 1.40936,-8.27109 -1.12037,-18.552965 -1.58486,-6.44161 -2.23373,-11.923178 -2.20381,-18.617385 l 0.0424,-9.487685 -2.59869,0.39437 c -1.42928,0.216903 -3.92079,0.963603 -5.5367,1.65933 -1.61589,0.695728 -3.18624,1.114851 -3.48966,0.931397 -0.96609,-0.584149 5.60802,-7.395953 12.48508,-12.936462 7.11772,-5.734419 14.88088,-9.866528 24.17509,-12.867743 7.40757,-2.391992 8.77202,-2.354796 5.60869,0.152895 -4.41281,3.498202 -9.80273,11.148425 -11.3911,16.168026 -1.92805,6.09311 -1.96432,15.642907 -0.0818,21.548537 0.79671,2.499378 3.58394,8.991956 6.19386,14.427961 7.41192,15.437754 7.36725,22.739794 -0.19256,31.469144 -4.2529,4.91086 -12.1447,9.56532 -19.99878,11.79496 -6.0731,1.72406 -16.39831,3.14907 -29.95564,4.13429 -16.468,1.19672 -18.47512,2.01987 -20.25632,8.30738 l -1.15595,4.08047 -9.26586,0.007 c -5.09625,0.004 -10.93481,0.17372 -12.97458,0.37771 l -3.7087,0.3709 z"
       id="path1"
       inkscape:label="path1" />
  </g>
</svg>
